# xmcd CD database file
#
# Track frame offsets:
#	183
#	28420
#	54895
#	77358
#	102333
#	127183
#	155908
#	178783
#	222633
#	258770
#	277770
#
# Disc length: 4510 seconds
#
# Revision: 4
# Processed by: cddbd v1.5.2PL0 Copyright (c) Steve Scherf et al.
# Submitted via: CDex 1.51
#
DISCID=9a119c0b
DTITLE=The Oscar Peterson Trio - At The Stratford Shakespearean Festival  {rec. 8 Aout 1956}
DYEAR=1993
DGENRE=Jazz
TTITLE0=Falling in Love with Love
TTITLE1=How About You ¿
TTITLE2=Flamingo
TTITLE3=Swinging on a Star
TTITLE4=Noreen's Nocturne
TTITLE5=Gypsy in My Soul
TTITLE6=Nuages
TTITLE7=How High the Moon ¿
TTITLE8=Love You Madly
TTITLE9=52nd Street Theme
TTITLE10=Daisy's Dream
EXTD=w/ Herb Ellis: guitar\nRay Brown: bass\n\nTracks 7 and 11 previously unissued.\n\nRecorded in Ontario, Canada on Aug. 8 1956\nA 1993 Verve Release\nSubmitted by rwright@waonline.com on 7-20-97. YEAR: 1993
EXTT0=
EXTT1=
EXTT2=
EXTT3=
EXTT4=
EXTT5=
EXTT6=
EXTT7=
EXTT8=
EXTT9=
EXTT10=
PLAYORDER=
